<mxfile host="app.diagrams.net" modified="2021-10-11T12:23:23.654Z" agent="5.0 (Windows NT 10.0; Win64; x64) AppleWebKit/537.36 (KHTML, like Gecko) Chrome/94.0.4606.71 Safari/537.36" etag="IZy0xaw67TH62VgYUvNS" version="15.5.0" type="github">
  <diagram name="Page-1" id="12e1b939-464a-85fe-373e-61e167be1490">
    <mxGraphModel dx="1550" dy="786" grid="1" gridSize="10" guides="1" tooltips="1" connect="1" arrows="1" fold="1" page="1" pageScale="1.5" pageWidth="1169" pageHeight="826" background="none" math="0" shadow="0">
      <root>
        <mxCell id="0" />
        <mxCell id="1" parent="0" />
        <mxCell id="60da8b9f42644d3a-38" value="PROMOTERS" style="ellipse;whiteSpace=wrap;html=1;rounded=0;shadow=0;strokeWidth=6;fontSize=14;align=center;fillColor=#BF639A;strokeColor=#FFFFFF;fontColor=#FFFFFF;" parent="1" vertex="1">
          <mxGeometry x="1379" y="545" width="115" height="115" as="geometry" />
        </mxCell>
        <mxCell id="uOtaQ9722JwcPOMDpqTp-11" style="edgeStyle=orthogonalEdgeStyle;rounded=0;orthogonalLoop=1;jettySize=auto;html=1;exitX=1;exitY=0.5;exitDx=0;exitDy=0;entryX=0;entryY=0.5;entryDx=0;entryDy=0;" edge="1" parent="1" source="uOtaQ9722JwcPOMDpqTp-1" target="uOtaQ9722JwcPOMDpqTp-2">
          <mxGeometry relative="1" as="geometry" />
        </mxCell>
        <mxCell id="uOtaQ9722JwcPOMDpqTp-1" value="Business Understanding" style="rounded=1;whiteSpace=wrap;html=1;" vertex="1" parent="1">
          <mxGeometry x="195" y="430" width="120" height="60" as="geometry" />
        </mxCell>
        <mxCell id="uOtaQ9722JwcPOMDpqTp-12" style="edgeStyle=orthogonalEdgeStyle;rounded=0;orthogonalLoop=1;jettySize=auto;html=1;exitX=1;exitY=0.5;exitDx=0;exitDy=0;" edge="1" parent="1" source="uOtaQ9722JwcPOMDpqTp-2" target="uOtaQ9722JwcPOMDpqTp-3">
          <mxGeometry relative="1" as="geometry" />
        </mxCell>
        <mxCell id="uOtaQ9722JwcPOMDpqTp-2" value="Analytic Approach&lt;span style=&quot;color: rgba(0 , 0 , 0 , 0) ; font-family: monospace ; font-size: 0px&quot;&gt;%3CmxGraphModel%3E%3Croot%3E%3CmxCell%20id%3D%220%22%2F%3E%3CmxCell%20id%3D%221%22%20parent%3D%220%22%2F%3E%3CmxCell%20id%3D%222%22%20value%3D%22Business%20Understanding%22%20style%3D%22rounded%3D1%3BwhiteSpace%3Dwrap%3Bhtml%3D1%3B%22%20vertex%3D%221%22%20parent%3D%221%22%3E%3CmxGeometry%20x%3D%22180%22%20y%3D%22430%22%20width%3D%22120%22%20height%3D%2260%22%20as%3D%22geometry%22%2F%3E%3C%2FmxCell%3E%3C%2Froot%3E%3C%2FmxGraphModel%3E&lt;/span&gt;" style="rounded=1;whiteSpace=wrap;html=1;" vertex="1" parent="1">
          <mxGeometry x="357" y="430" width="120" height="60" as="geometry" />
        </mxCell>
        <mxCell id="uOtaQ9722JwcPOMDpqTp-13" style="edgeStyle=orthogonalEdgeStyle;rounded=0;orthogonalLoop=1;jettySize=auto;html=1;exitX=1;exitY=0.5;exitDx=0;exitDy=0;entryX=1;entryY=0.75;entryDx=0;entryDy=0;" edge="1" parent="1" source="uOtaQ9722JwcPOMDpqTp-3" target="uOtaQ9722JwcPOMDpqTp-4">
          <mxGeometry relative="1" as="geometry" />
        </mxCell>
        <mxCell id="uOtaQ9722JwcPOMDpqTp-3" value="Data Requirements" style="rounded=1;whiteSpace=wrap;html=1;" vertex="1" parent="1">
          <mxGeometry x="510" y="430" width="120" height="60" as="geometry" />
        </mxCell>
        <mxCell id="uOtaQ9722JwcPOMDpqTp-14" style="edgeStyle=orthogonalEdgeStyle;rounded=0;orthogonalLoop=1;jettySize=auto;html=1;exitX=0.5;exitY=0;exitDx=0;exitDy=0;entryX=0.5;entryY=1;entryDx=0;entryDy=0;" edge="1" parent="1" source="uOtaQ9722JwcPOMDpqTp-4" target="uOtaQ9722JwcPOMDpqTp-3">
          <mxGeometry relative="1" as="geometry" />
        </mxCell>
        <mxCell id="uOtaQ9722JwcPOMDpqTp-15" style="edgeStyle=orthogonalEdgeStyle;rounded=0;orthogonalLoop=1;jettySize=auto;html=1;exitX=0.5;exitY=1;exitDx=0;exitDy=0;entryX=0.5;entryY=0;entryDx=0;entryDy=0;" edge="1" parent="1" source="uOtaQ9722JwcPOMDpqTp-4" target="uOtaQ9722JwcPOMDpqTp-5">
          <mxGeometry relative="1" as="geometry" />
        </mxCell>
        <mxCell id="uOtaQ9722JwcPOMDpqTp-4" value="Data Collection" style="rounded=1;whiteSpace=wrap;html=1;" vertex="1" parent="1">
          <mxGeometry x="620" y="530" width="120" height="60" as="geometry" />
        </mxCell>
        <mxCell id="uOtaQ9722JwcPOMDpqTp-16" style="edgeStyle=orthogonalEdgeStyle;rounded=0;orthogonalLoop=1;jettySize=auto;html=1;exitX=0;exitY=0.5;exitDx=0;exitDy=0;entryX=0;entryY=0.5;entryDx=0;entryDy=0;" edge="1" parent="1" source="uOtaQ9722JwcPOMDpqTp-5" target="uOtaQ9722JwcPOMDpqTp-4">
          <mxGeometry relative="1" as="geometry" />
        </mxCell>
        <mxCell id="uOtaQ9722JwcPOMDpqTp-17" style="edgeStyle=orthogonalEdgeStyle;rounded=0;orthogonalLoop=1;jettySize=auto;html=1;exitX=1;exitY=0.5;exitDx=0;exitDy=0;entryX=1;entryY=0.5;entryDx=0;entryDy=0;" edge="1" parent="1" source="uOtaQ9722JwcPOMDpqTp-5" target="uOtaQ9722JwcPOMDpqTp-6">
          <mxGeometry relative="1" as="geometry" />
        </mxCell>
        <mxCell id="uOtaQ9722JwcPOMDpqTp-5" value="Data Understanding" style="rounded=1;whiteSpace=wrap;html=1;" vertex="1" parent="1">
          <mxGeometry x="620" y="610" width="120" height="60" as="geometry" />
        </mxCell>
        <mxCell id="uOtaQ9722JwcPOMDpqTp-18" style="edgeStyle=orthogonalEdgeStyle;rounded=0;orthogonalLoop=1;jettySize=auto;html=1;exitX=0.5;exitY=0;exitDx=0;exitDy=0;entryX=0;entryY=0.5;entryDx=0;entryDy=0;" edge="1" parent="1" source="uOtaQ9722JwcPOMDpqTp-6" target="uOtaQ9722JwcPOMDpqTp-4">
          <mxGeometry relative="1" as="geometry">
            <Array as="points">
              <mxPoint x="537" y="550" />
              <mxPoint x="620" y="550" />
            </Array>
          </mxGeometry>
        </mxCell>
        <mxCell id="uOtaQ9722JwcPOMDpqTp-19" style="edgeStyle=orthogonalEdgeStyle;rounded=0;orthogonalLoop=1;jettySize=auto;html=1;exitX=0;exitY=0.5;exitDx=0;exitDy=0;entryX=1;entryY=0.5;entryDx=0;entryDy=0;" edge="1" parent="1" source="uOtaQ9722JwcPOMDpqTp-6" target="uOtaQ9722JwcPOMDpqTp-7">
          <mxGeometry relative="1" as="geometry" />
        </mxCell>
        <mxCell id="uOtaQ9722JwcPOMDpqTp-6" value="Data Preparation" style="rounded=1;whiteSpace=wrap;html=1;" vertex="1" parent="1">
          <mxGeometry x="477" y="740" width="120" height="60" as="geometry" />
        </mxCell>
        <mxCell id="uOtaQ9722JwcPOMDpqTp-20" style="edgeStyle=orthogonalEdgeStyle;rounded=0;orthogonalLoop=1;jettySize=auto;html=1;exitX=0.5;exitY=1;exitDx=0;exitDy=0;entryX=0.5;entryY=1;entryDx=0;entryDy=0;" edge="1" parent="1" source="uOtaQ9722JwcPOMDpqTp-7" target="uOtaQ9722JwcPOMDpqTp-6">
          <mxGeometry relative="1" as="geometry" />
        </mxCell>
        <mxCell id="uOtaQ9722JwcPOMDpqTp-21" style="edgeStyle=orthogonalEdgeStyle;rounded=0;orthogonalLoop=1;jettySize=auto;html=1;exitX=0;exitY=0.5;exitDx=0;exitDy=0;entryX=0.409;entryY=1.006;entryDx=0;entryDy=0;entryPerimeter=0;" edge="1" parent="1" source="uOtaQ9722JwcPOMDpqTp-7" target="uOtaQ9722JwcPOMDpqTp-8">
          <mxGeometry relative="1" as="geometry">
            <Array as="points">
              <mxPoint x="330" y="780" />
              <mxPoint x="244" y="780" />
            </Array>
          </mxGeometry>
        </mxCell>
        <mxCell id="uOtaQ9722JwcPOMDpqTp-24" style="edgeStyle=orthogonalEdgeStyle;rounded=0;orthogonalLoop=1;jettySize=auto;html=1;exitX=0.5;exitY=0;exitDx=0;exitDy=0;entryX=1;entryY=0.25;entryDx=0;entryDy=0;" edge="1" parent="1" source="uOtaQ9722JwcPOMDpqTp-7" target="uOtaQ9722JwcPOMDpqTp-8">
          <mxGeometry relative="1" as="geometry" />
        </mxCell>
        <mxCell id="uOtaQ9722JwcPOMDpqTp-7" value="Modeling" style="rounded=1;whiteSpace=wrap;html=1;" vertex="1" parent="1">
          <mxGeometry x="330" y="740" width="120" height="60" as="geometry" />
        </mxCell>
        <mxCell id="uOtaQ9722JwcPOMDpqTp-25" style="edgeStyle=orthogonalEdgeStyle;rounded=0;orthogonalLoop=1;jettySize=auto;html=1;exitX=0.5;exitY=0;exitDx=0;exitDy=0;entryX=0.5;entryY=1;entryDx=0;entryDy=0;" edge="1" parent="1" source="uOtaQ9722JwcPOMDpqTp-8" target="uOtaQ9722JwcPOMDpqTp-9">
          <mxGeometry relative="1" as="geometry" />
        </mxCell>
        <mxCell id="uOtaQ9722JwcPOMDpqTp-8" value="Evaluation&lt;span style=&quot;color: rgba(0 , 0 , 0 , 0) ; font-family: monospace ; font-size: 0px&quot;&gt;%3CmxGraphModel%3E%3Croot%3E%3CmxCell%20id%3D%220%22%2F%3E%3CmxCell%20id%3D%221%22%20parent%3D%220%22%2F%3E%3CmxCell%20id%3D%222%22%20value%3D%22Modeling%22%20style%3D%22rounded%3D1%3BwhiteSpace%3Dwrap%3Bhtml%3D1%3B%22%20vertex%3D%221%22%20parent%3D%221%22%3E%3CmxGeometry%20x%3D%22290%22%20y%3D%22740%22%20width%3D%22120%22%20height%3D%2260%22%20as%3D%22geometry%22%2F%3E%3C%2FmxCell%3E%3C%2Froot%3E%3C%2FmxGraphModel%3E&lt;/span&gt;" style="rounded=1;whiteSpace=wrap;html=1;" vertex="1" parent="1">
          <mxGeometry x="195" y="700" width="120" height="60" as="geometry" />
        </mxCell>
        <mxCell id="uOtaQ9722JwcPOMDpqTp-26" style="edgeStyle=orthogonalEdgeStyle;rounded=0;orthogonalLoop=1;jettySize=auto;html=1;exitX=0.5;exitY=0;exitDx=0;exitDy=0;entryX=0.5;entryY=1;entryDx=0;entryDy=0;" edge="1" parent="1" source="uOtaQ9722JwcPOMDpqTp-9" target="uOtaQ9722JwcPOMDpqTp-10">
          <mxGeometry relative="1" as="geometry" />
        </mxCell>
        <mxCell id="uOtaQ9722JwcPOMDpqTp-9" value="Deployment" style="rounded=1;whiteSpace=wrap;html=1;" vertex="1" parent="1">
          <mxGeometry x="190" y="610" width="120" height="60" as="geometry" />
        </mxCell>
        <mxCell id="uOtaQ9722JwcPOMDpqTp-27" style="edgeStyle=orthogonalEdgeStyle;rounded=0;orthogonalLoop=1;jettySize=auto;html=1;exitX=1;exitY=0.5;exitDx=0;exitDy=0;entryX=1;entryY=0.5;entryDx=0;entryDy=0;" edge="1" parent="1" source="uOtaQ9722JwcPOMDpqTp-10" target="uOtaQ9722JwcPOMDpqTp-7">
          <mxGeometry relative="1" as="geometry" />
        </mxCell>
        <mxCell id="uOtaQ9722JwcPOMDpqTp-10" value="Feedback" style="rounded=1;whiteSpace=wrap;html=1;" vertex="1" parent="1">
          <mxGeometry x="190" y="520" width="120" height="60" as="geometry" />
        </mxCell>
      </root>
    </mxGraphModel>
  </diagram>
</mxfile>
